PathFileType	4	(X/Y/Z)	 s10c0201.trc
DataRate	CameraRate	NumFrames	NumMarkers	Units	OrigDataRate	OrigDataStartFrame	OrigNumFrames
200	200	4	50	mm	200	1001	2000
Frame#	Time	racr			lacr			c7			jug			rlel			rdr			llel			ldr			s2			lic			ric			lasi			rasi			rpsi			lpsi			rgt			lgt			rth1			rth2			rth3			rth4			rlfc			rmfc			rsh1			rsh2			rsh3			rsh4			rlmal			rmmal			rcal			rtoe			rmt5			lth1			lth2			lth4			lth3			llfc			lmfc			llmal			lmmal			lcal			lmt5			lsh1			lsh2			lsh3			lsh4			ltoe			SBIKE			LBIKE			RBIKE			
		X1	Y1	Z1	X2	Y2	Z2	X3	Y3	Z3	X4	Y4	Z4	X5	Y5	Z5	X6	Y6	Z6	X7	Y7	Z7	X8	Y8	Z8	X9	Y9	Z9	X10	Y10	Z10	X11	Y11	Z11	X12	Y12	Z12	X13	Y13	Z13	X14	Y14	Z14	X15	Y15	Z15	X16	Y16	Z16	X17	Y17	Z17	X18	Y18	Z18	X19	Y19	Z19	X20	Y20	Z20	X21	Y21	Z21	X22	Y22	Z22	X23	Y23	Z23	X24	Y24	Z24	X25	Y25	Z25	X26	Y26	Z26	X27	Y27	Z27	X28	Y28	Z28	X29	Y29	Z29	X30	Y30	Z30	X31	Y31	Z31	X32	Y32	Z32	X33	Y33	Z33	X34	Y34	Z34	X35	Y35	Z35	X36	Y36	Z36	X37	Y37	Z37	X38	Y38	Z38	X39	Y39	Z39	X40	Y40	Z40	X41	Y41	Z41	X42	Y42	Z42	X43	Y43	Z43	X44	Y44	Z44	X45	Y45	Z45	X46	Y46	Z46	X47	Y47	Z47	X48	Y48	Z48	X49	Y49	Z49	X50	Y50	Z50	
1001	5.0050	398.076317	1260.979846	-36.257676	474.424137	1279.525375	-330.094724	408.327425	1311.072560	-188.069089	392.943207	1162.057618	-197.164088	413.142622	1007.104664	37.324093	608.623250	911.865133	-11.515453	463.346735	1039.411132	-482.477618	630.468313	911.927583	-401.062221	-105.067229	1089.513885	-224.444257	45.570684	1113.753577	-389.114366	79.314058	1112.677717	-91.629963	83.775998	1022.477863	-364.839235	83.669026	1033.536542	-103.530948	-66.630050	1148.072247	-166.947097	-62.814950	1154.203210	-281.030474	-16.769563	1003.323338	-35.980844	-30.890124	966.799134	-414.477483	92.587171	911.743944	-19.994661	176.867794	884.836918	-35.073695	233.760477	821.217709	-36.465015	192.777727	914.836076	-50.673561	312.111608	748.484971	-55.379197	288.064531	731.167431	-171.008592	214.208698	685.523866	-21.561323	160.801050	616.084831	-38.403417	81.820505	581.654647	-40.666521	179.686952	598.290503	-66.294416	-7.407544	522.225671	-57.857989	23.410671	518.935398	-136.859946	-57.529148	540.935937	-107.812033	107.017477	361.312060	-93.978345	25.873367	399.183619	-37.687046	60.934650	861.805856	-426.495292	139.299038	826.652011	-410.601389	160.846104	854.319028	-402.954769	187.514586	753.852360	-393.456003	274.678525	685.591113	-368.281905	275.711276	685.035140	-255.350131	203.918089	311.123548	-369.667790	217.097098	315.389744	-287.836339	151.921289	271.533903	-330.370109	329.881024	239.872708	-385.543041	229.765619	569.031178	-399.961647	247.538139	484.396347	-386.619882	218.788696	400.426406	-383.428051	275.761609	485.925853	-361.194990	405.431096	279.474080	-325.361070	-204.903996	834.314869	-225.361560	-78.250661	81.539824	-423.817950	-102.683049	80.450519	-24.411424	
1002	5.0100	393.175690	1261.436606	-32.000611	476.228742	1279.385380	-327.210603	407.589032	1312.006999	-185.437810	392.186401	1162.949874	-194.284031	411.831028	1006.962933	36.980032	608.974046	912.291744	-10.690102	464.222990	1040.412036	-481.791780	630.665428	912.011633	-401.202790	-104.743310	1090.792410	-227.768417	48.770058	1113.578583	-391.358857	78.462399	1115.130816	-92.949560	86.134313	1022.836956	-364.706705	83.092467	1035.494395	-104.316503	-66.165280	1148.907339	-171.406194	-62.125230	1154.556553	-284.492885	-16.792233	1006.769320	-37.707477	-28.634014	966.626899	-415.713826	94.273725	916.759556	-22.058478	178.618589	891.457962	-36.847640	237.304229	828.971252	-37.650687	194.522436	921.755422	-52.364145	318.011231	757.807598	-57.348209	293.506874	739.668683	-173.110112	220.637120	694.394880	-23.054774	166.932437	624.890916	-39.343739	87.915113	590.546335	-41.206212	185.706226	606.911197	-67.212993	-1.238883	531.256400	-57.618734	29.199607	527.833930	-136.852742	-51.417233	550.176161	-107.414237	111.700186	369.468908	-93.880060	30.957377	408.002908	-37.494724	60.175966	860.119277	-426.880387	137.177745	822.537953	-410.281459	159.493544	849.435344	-402.499258	182.849868	748.143849	-392.566316	268.290215	677.151362	-367.395976	269.018415	676.596003	-254.819074	199.422411	302.516682	-368.985384	213.112560	306.715940	-287.335039	147.702299	263.925188	-330.119823	325.436198	231.205911	-385.623459	223.150529	560.723067	-399.903178	241.716942	476.232844	-386.214331	213.764311	392.033753	-383.085516	269.858534	477.935990	-360.674954	401.332605	269.898448	-325.443172	-204.937242	834.322523	-225.424220	-78.257671	81.544280	-423.806410	-102.686561	80.470407	-24.415353	
1003	5.0150	388.394492	1261.825880	-27.662644	477.996191	1279.251020	-324.356607	406.846825	1312.840681	-182.884618	391.336035	1163.710392	-191.537702	411.015099	1006.781013	36.974661	609.325022	912.827655	-9.554219	464.979655	1041.284436	-481.101893	630.786209	912.065742	-401.355092	-104.971540	1092.028668	-231.395533	51.763839	1113.285001	-392.971230	77.361855	1117.839041	-93.442168	88.602248	1023.424735	-364.408546	82.613043	1037.803599	-105.122978	-66.002759	1149.853947	-175.539550	-60.174755	1154.622200	-288.518126	-16.944338	1010.104376	-39.271540	-26.397583	966.435467	-417.037008	95.910591	921.781929	-23.757443	180.790058	898.243877	-38.089925	240.849189	836.776277	-39.707491	196.165506	928.690809	-53.692663	323.893214	767.362702	-59.306053	298.560783	748.705367	-174.840668	226.857117	703.494388	-24.362141	173.354467	633.761678	-40.318011	94.421910	599.204585	-41.732388	192.666521	615.981475	-67.981926	5.521231	540.167287	-57.441712	36.013044	536.593256	-137.097860	-44.676369	559.311490	-107.325101	117.623388	377.503081	-93.543139	36.864978	416.729277	-37.052484	59.541172	858.842965	-427.337087	134.149922	818.142998	-409.158186	158.125035	844.724053	-402.014816	177.954969	742.685979	-391.930179	261.678877	668.538435	-366.582698	261.733048	667.802080	-254.429574	194.551832	294.639073	-368.843913	208.624894	299.070531	-287.371254	142.963269	256.872231	-329.826553	320.418035	222.772066	-385.730855	216.377796	552.270609	-399.832425	235.640555	468.077368	-385.796823	208.494133	383.514224	-382.784759	263.758035	470.070396	-360.294811	396.761408	260.630103	-325.564705	-205.044937	834.167242	-225.427145	-78.249456	81.510267	-423.765814	-102.716416	80.517654	-24.431697	
1004	5.0200	383.789996	1262.120778	-23.304368	479.531818	1279.059937	-321.542468	406.133414	1313.656107	-180.378965	390.514445	1164.317606	-188.989687	410.169036	1006.420532	37.190493	609.577621	913.280856	-8.457873	465.775397	1042.128027	-480.473810	630.850517	912.093190	-401.551896	-103.996982	1092.930577	-234.639718	54.968231	1113.012485	-394.793401	76.378742	1120.458438	-94.574691	90.955501	1024.176911	-363.843945	82.218563	1039.970287	-105.923919	-65.671416	1150.613349	-179.898988	-58.979366	1155.245085	-292.404496	-17.079630	1013.576885	-40.841100	-24.245626	966.204820	-418.386813	97.436766	926.767285	-25.092940	182.932325	904.823687	-39.266292	244.187995	844.867189	-40.745022	197.827893	936.103780	-54.352528	329.905270	777.500827	-60.860512	304.192468	757.999516	-176.916545	233.312337	712.737166	-25.624320	180.087380	642.780131	-41.208260	101.310156	607.870874	-42.296744	199.311816	624.832740	-68.862284	12.996458	548.918332	-57.105039	41.966140	544.675084	-137.045032	-37.010231	568.460071	-107.289932	123.284201	384.919126	-93.380707	43.034013	425.038650	-36.847052	59.033610	857.727157	-427.826501	132.020817	814.349049	-409.086112	156.814525	840.065715	-401.627784	173.104981	737.442909	-391.489883	254.699380	660.319824	-366.270784	253.182501	659.777592	-254.926154	189.216510	287.210554	-368.879255	203.599950	291.667775	-287.562137	137.868433	250.183165	-329.798309	314.966510	214.442717	-385.879488	209.477578	543.932094	-399.794573	229.304723	459.881557	-385.369311	203.130285	374.994885	-382.539663	257.293996	462.190587	-359.770674	391.698566	251.486974	-325.732470	-205.026499	834.191952	-225.453629	-78.242978	81.538130	-423.787130	-102.691952	80.510481	-24.425196	
